<svg width="128" height="48" viewBox="0 0 128 48" fill="none" xmlns="http://www.w3.org/2000/svg">
<path fill-rule="evenodd" clip-rule="evenodd" d="M29.9999 10.2353C27.0499 6.26453 21.9076 0 13.3012 0C4.60748 0 0 6.74129 0 12.8806C0 20.9582 4.84779 27.9012 10.9554 33.602C17.0719 39.3109 24.5829 43.8564 29.9999 47.1294C35.4171 43.8564 42.928 39.3109 49.0447 33.602C55.1522 27.9012 60 20.9582 60 12.8806C60 6.74129 55.3922 0 46.6986 0C38.0924 0 32.9497 6.26453 29.9999 10.2353Z" fill="#E4CED1"/>
<path fill-rule="evenodd" clip-rule="evenodd" d="M97.9999 10.2353C95.0499 6.26453 89.9076 0 81.3012 0C72.6075 0 68 6.74129 68 12.8806C68 20.9582 72.8478 27.9012 78.9554 33.602C85.0719 39.3109 92.5829 43.8564 97.9999 47.1294C103.417 43.8564 110.928 39.3109 117.045 33.602C123.152 27.9012 128 20.9582 128 12.8806C128 6.74129 123.392 0 114.699 0C106.092 0 100.95 6.26453 97.9999 10.2353Z" fill="#F5F5F5"/>
<path d="M114.698 0.5C123.074 0.5 127.5 6.97378 127.5 12.8809C127.5 20.7506 122.774 27.5694 116.703 33.2363C110.726 38.8145 103.4 43.2807 98 46.5439C92.6004 43.2807 85.2734 38.8146 79.2969 33.2363C73.2256 27.5694 68.5001 20.7506 68.5 12.8809C68.5 6.97386 72.9255 0.500204 81.3008 0.5C89.6388 0.5 94.6484 6.5621 97.5986 10.5332L98 11.0732L98.4014 10.5332C101.351 6.56216 106.361 0.500163 114.698 0.5Z" stroke="#C47093" stroke-opacity="0.12"/>
</svg>
